<?xml version="1.0" encoding="UTF-8"?>
<svg width="331px" height="90px" viewBox="0 0 331 90" version="1.1" xmlns="http://www.w3.org/2000/svg" xmlns:xlink="http://www.w3.org/1999/xlink">
    <!-- Generator: Sketch 46.2 (44496) - http://www.bohemiancoding.com/sketch -->
    <title>02-CMYK-EPS file for print</title>
    <desc>Created with Sketch.</desc>
    <defs></defs>
    <g id="Page-2" stroke="none" stroke-width="1" fill="none" fill-rule="evenodd">
        <g id="Artboard-2-Copy" transform="translate(-62.000000, -26.000000)" fill="#FFFFFF">
            <g id="02-CMYK-EPS-file-for-print" transform="translate(62.000000, 26.000000)">
                <path d="M61,35.4972369 C59.1731535,50.6604776 47.5120682,61 31.3265501,61 C13.4879318,61 0,48.1626049 0,30.5004972 C0,12.8373951 13.4879318,0 31.3265501,0 C47.5120682,0 59.1731535,10.338528 61,25.5027631 L45.9463433,25.5027631 C44.2922388,18.1791833 39.0708123,13.6130084 31.2401791,13.6130084 C21.5806908,13.6130084 14.8799104,20.7645611 14.8799104,30.5004972 C14.8799104,40.2354389 21.5806908,47.3869916 31.2401791,47.3869916 C39.0708123,47.3869916 44.2922388,42.8208167 45.9463433,35.4972369 L61,35.4972369 Z" id="Fill-9"></path>
                <path d="M115.209598,30.5004972 C115.209598,21.2806423 108.416315,13.5274921 98.9573249,13.5274921 C89.4983353,13.5274921 82.7050519,21.2806423 82.7050519,30.5004972 C82.7050519,39.7193577 89.4983353,47.4735023 98.9573249,47.4735023 C108.416315,47.4735023 115.209598,39.7193577 115.209598,30.5004972 Z M130,30.5004972 C130,47.5590187 116.671469,61 98.9573249,61 C81.3285312,61 68,47.5590187 68,30.5004972 C68,13.4409813 81.3285312,0 98.9573249,0 C116.671469,0 130,13.4409813 130,30.5004972 L130,30.5004972 Z" id="Fill-10"></path>
                <path d="M172.193871,19.4446127 C171.41539,15.0566164 168.643238,12.0448959 162.669221,12.0448959 C157.646569,12.0448959 154.26982,14.1103026 154.26982,17.8955576 C154.26982,21.0790643 156.608261,22.4553401 161.024317,23.4016539 L169.249833,25.2942814 C179.986676,27.6178639 187,31.9194706 187,41.9853494 C187,53.6866729 177.302465,61 162.583278,61 C149.33511,61 137.386076,54.8047728 136,40.3508978 L150.634244,40.3508978 C151.586609,45.5134216 156.088608,48.6105387 163.01499,48.6105387 C168.470353,48.6105387 171.328448,46.6315215 171.328448,43.4480148 C171.328448,41.4699907 170.116256,39.404584 165.093604,38.4582703 L155.39507,36.3074669 C143.792805,33.8120981 138.338441,28.3913985 138.338441,19.1000472 C138.338441,7.39872377 147.862092,0 161.716855,0 C171.241506,0 185.442039,3.69886539 186.913058,19.4446127 L172.193871,19.4446127 Z" id="Fill-11"></path>
                <polygon id="Fill-12" points="245.264442 60 245.264442 30.4133811 232.097739 50.6291349 223.902261 50.7162545 210.649014 30.2401432 210.736564 60 196 60 196 1 206.899462 1 228 32.4962406 249.013994 1 260 1 260 60"></polygon>
                <path d="M316.210354,30.5004972 C316.210354,21.2806423 309.415969,13.5274921 299.95782,13.5274921 C290.498679,13.5274921 283.705287,21.2806423 283.705287,30.5004972 C283.705287,39.7193577 290.498679,47.4735023 299.95782,47.4735023 C309.415969,47.4735023 316.210354,39.7193577 316.210354,30.5004972 Z M331,30.5004972 C331,47.5590187 317.672248,61 299.95782,61 C282.328745,61 269,47.5590187 269,30.5004972 C269,13.4409813 282.328745,0 299.95782,0 C317.672248,0 331,13.4409813 331,30.5004972 L331,30.5004972 Z" id="Fill-13"></path>
                <polyline id="Fill-14" points="8.35385494 82.9063739 15.2372359 82.9063739 15.2372359 84.16886 8.35385494 84.16886 8.35385494 88.7570953 16 88.7570953 16 90 7 90 7 77 16 77 16 78.2429047 8.35385494 78.2429047 8.35385494 82.9063739"></polyline>
                <polyline id="Fill-15" points="30 90 28.7032083 90 28.7219168 79.9815285 24.4475261 87.4379261 23.5711824 87.4379261 19.2603594 79.9248454 19.2967917 90 18 90 18 77 19.0043489 77 24.0093542 85.7941176 29.0143596 77 30 77 30 90"></polyline>
                <path d="M38.2369021,84.4749485 C40.3377807,84.4749485 41.7328344,83.1939115 41.7328344,81.3017282 C41.7328344,79.4651974 40.3377807,78.2429047 38.2369021,78.2429047 L35.2857143,78.2429047 L35.2857143,84.4749485 L38.2369021,84.4749485 Z M38.2915718,77 C41.116824,77 43,78.7211035 43,81.3017282 C43,83.9586174 41.0621542,85.7178532 38.1285389,85.7178532 L35.2857143,85.7178532 L35.2857143,90 L34,90 L34,77 L38.2915718,77 L38.2915718,77 Z" id="Fill-16"></path>
                <path d="M56.6775299,83.4990102 C56.6775299,80.5989036 54.4008224,78.2125019 51.4816874,78.2125019 C48.5803701,78.2125019 46.3036625,80.5989036 46.3036625,83.4990102 C46.3036625,86.4001066 48.5803701,88.7874981 51.4816874,88.7874981 C54.4008224,88.7874981 56.6775299,86.4001066 56.6775299,83.4990102 Z M58,83.4990102 C58,87.0979138 55.0986827,90 51.5004949,90 C47.9013173,90 45,87.0979138 45,83.4990102 C45,79.9010964 47.9013173,77 51.5004949,77 C55.0986827,77 58,79.9010964 58,83.4990102 L58,83.4990102 Z" id="Fill-17"></path>
                <polyline id="Fill-18" points="73.751467 90 72.4701947 90 69.0093776 79.3540568 65.5298053 90 64.2672882 90 60 77 61.3553057 77 64.8891692 87.9692296 68.4417878 77 69.5769674 77 73.1108308 87.9497915 76.6446943 77 78 77 73.751467 89.9621468 73.751467 90"></polyline>
                <polyline id="Fill-19" points="81.3538549 82.9063739 88.2372359 82.9063739 88.2372359 84.16886 81.3538549 84.16886 81.3538549 88.7570953 89 88.7570953 89 90 80 90 80 77 89 77 89 78.2429047 81.3538549 78.2429047 81.3538549 82.9063739"></polyline>
                <path d="M96.6309926,84.0348819 C98.6789338,84.0348819 100.13706,82.9445061 100.13706,81.1481687 C100.13706,79.3322499 98.6789338,78.2429047 96.6309926,78.2429047 L93.3099264,78.2429047 L93.3099264,84.0348819 L96.6309926,84.0348819 Z M93.3099264,85.2777866 L93.3099264,90 L92,90 L92,77 L96.6677939,77 C99.490551,77 101.446986,78.5871254 101.446986,81.1481687 C101.446986,83.270176 100.081361,84.7429047 97.9777203,85.1633899 L102,90 L100.357868,90 L96.4280883,85.2777866 L93.3099264,85.2777866 L93.3099264,85.2777866 Z" id="Fill-20"></path>
                <polygon id="Fill-21" points="104 90 105 90 105 77 104 77"></polygon>
                <polyline id="Fill-22" points="120 90 118.835548 90 110.355953 79.4466466 110.355953 90 109 90 109 77 110.126357 77 118.645077 87.6667195 118.645077 77 120 77 120 90"></polyline>
                <path d="M135.981448,83.4990102 L135.981448,89.7426527 L134.872433,89.7426527 L134.756997,87.0800975 C133.84072,88.8429268 132.138032,90 129.710775,90 C125.886942,90 123,87.0979138 123,83.573245 C123,79.8278514 126.039483,77 129.806628,77 C132.654404,77 135.254816,78.6163393 135.961865,81.3699558 L134.508602,81.3699558 C133.859272,79.3141465 131.851502,78.2491244 129.82518,78.2491244 C126.766114,78.2491244 124.375961,80.5068524 124.375961,83.573245 C124.375961,86.4001066 126.613573,88.7330592 129.710775,88.7330592 C132.48228,88.7330592 134.223103,86.8593726 134.56632,84.3997259 L129.596369,84.3997259 L129.596369,83.2060302 L136,83.2060302 L135.961865,83.4990102 L135.981448,83.4990102" id="Fill-23"></path>
                <path d="M154.577753,85.3548805 L156,85.3548805 C155.365475,88.108497 152.983677,90 149.777928,90 C146.014253,90 143,87.1711588 143,83.4990102 C143,79.8278514 146.014253,77 149.777928,77 C152.983677,77 155.365475,78.891503 156,81.6451195 L154.577753,81.6451195 C154.020862,79.5883204 152.236325,78.2491244 149.777928,78.2491244 C146.744008,78.2491244 144.382913,80.5068524 144.382913,83.4990102 C144.382913,86.4921578 146.744008,88.7508756 149.777928,88.7508756 C152.236325,88.7508756 154.020862,87.4106898 154.577753,85.3548805" id="Fill-24"></path>
                <path d="M163.630993,84.0348819 C165.678934,84.0348819 167.136065,82.9445061 167.136065,81.1481687 C167.136065,79.3322499 165.678934,78.2429047 163.630993,78.2429047 L160.308932,78.2429047 L160.308932,84.0348819 L163.630993,84.0348819 Z M160.308932,85.2777866 L160.308932,90 L159,90 L159,77 L163.667794,77 C166.490551,77 168.445992,78.5871254 168.445992,81.1481687 C168.445992,83.270176 167.081361,84.7429047 164.97772,85.1633899 L169,90 L167.357868,90 L163.428088,85.2777866 L160.308932,85.2777866 L160.308932,85.2777866 Z" id="Fill-25"></path>
                <polyline id="Fill-26" points="175.689193 85.3540511 175.689193 90 174.329145 90 174.329145 85.3540511 174.310807 85.3540511 169 77 170.492487 77 174.991341 84.0925955 179.506495 77 181 77 175.689193 85.3540511"></polyline>
                <path d="M187.237419,84.4749485 C189.338069,84.4749485 190.731996,83.1939115 190.731996,81.3017282 C190.731996,79.4651974 189.338069,78.2429047 187.237419,78.2429047 L184.285575,78.2429047 L184.285575,84.4749485 L187.237419,84.4749485 Z M187.291106,77 C190.116052,77 192,78.7211035 192,81.3017282 C192,83.9586174 190.061388,85.7178532 187.128091,85.7178532 L184.285575,85.7178532 L184.285575,90 L183,90 L183,77 L187.291106,77 L187.291106,77 Z" id="Fill-27"></path>
                <polyline id="Fill-28" points="199.176773 78.2429047 199.176773 90 197.823227 90 197.823227 78.2429047 193 78.2429047 193 77 204 77 204 78.2429047 199.176773 78.2429047"></polyline>
                <path d="M215.677631,83.4990102 C215.677631,80.5989036 213.401096,78.2125019 210.482184,78.2125019 C207.580097,78.2125019 205.303563,80.5989036 205.303563,83.4990102 C205.303563,86.4001066 207.580097,88.7874981 210.482184,88.7874981 C213.401096,88.7874981 215.677631,86.4001066 215.677631,83.4990102 Z M217,83.4990102 C217,87.0979138 214.098904,90 210.5,90 C206.902086,90 204,87.0979138 204,83.4990102 C204,79.9010964 206.902086,77 210.5,77 C214.098904,77 217,79.9010964 217,83.4990102 L217,83.4990102 Z" id="Fill-29"></path>
                <polygon id="Fill-30" points="225 90 226 90 226 77 225 77"></polygon>
                <polyline id="Fill-31" points="241 90 239.834519 90 231.355953 79.4466466 231.355953 90 230 90 230 77 231.126357 77 239.645077 87.6667195 239.645077 77 241 77 241 90"></polyline>
                <polyline id="Fill-32" points="250.129522 90 248.890704 90 243 77 244.463322 77 249.509607 88.1963485 254.555893 77 256 77 250.129522 90"></polyline>
                <polyline id="Fill-33" points="259.3537 82.9063739 266.237323 82.9063739 266.237323 84.16886 259.3537 84.16886 259.3537 88.7570953 267 88.7570953 267 90 258 90 258 77 267 77 267 78.2429047 259.3537 78.2429047 259.3537 82.9063739"></polyline>
                <path d="M279,80.6436328 L277.693685,80.6436328 C277.395012,79.124383 276.275744,78.1352419 274.149839,78.1352419 C272.228077,78.1352419 270.959976,79.0513327 270.959976,80.4965449 C270.959976,81.6327739 271.874095,82.3287266 273.552494,82.6219151 L275.474256,82.9871668 C277.730893,83.4086871 279,84.4521224 279,86.2290227 C279,88.4995064 277.115447,90 274.279566,90 C271.239541,90 269.298673,88.4442251 269,85.7532083 L270.306315,85.7532083 C270.624095,87.6939783 272.004827,88.8292201 274.335881,88.8292201 C276.369268,88.8292201 277.656476,87.8588351 277.656476,86.3761106 C277.656476,85.3316881 276.910298,84.5439289 275.269107,84.2507404 L273.066774,83.8292201 C270.73572,83.4086871 269.560137,82.2556762 269.560137,80.5705824 C269.560137,78.4284304 271.370274,77 274.056315,77 C276.629726,77 278.68222,78.1905232 279,80.6436328" id="Fill-34"></path>
                <polyline id="Fill-35" points="286.177801 78.2429047 286.177801 90 284.823227 90 284.823227 78.2429047 280 78.2429047 280 77 291 77 291 78.2429047 286.177801 78.2429047"></polyline>
                <path d="M302.677631,83.4990102 C302.677631,80.5989036 300.402086,78.2125019 297.481194,78.2125019 C294.581087,78.2125019 292.304553,80.5989036 292.304553,83.4990102 C292.304553,86.4001066 294.581087,88.7874981 297.481194,88.7874981 C300.402086,88.7874981 302.677631,86.4001066 302.677631,83.4990102 Z M304,83.4990102 C304,87.0979138 301.098904,90 297.5,90 C293.901096,90 291,87.0979138 291,83.4990102 C291,79.9010964 293.901096,77 297.5,77 C301.098904,77 304,79.9010964 304,83.4990102 L304,83.4990102 Z" id="Fill-36"></path>
                <path d="M311.630459,84.0348819 C313.678603,84.0348819 315.13588,82.9445061 315.13588,81.1481687 C315.13588,79.3322499 313.678603,78.2429047 311.630459,78.2429047 L308.309062,78.2429047 L308.309062,84.0348819 L311.630459,84.0348819 Z M308.309062,85.2777866 L308.309062,90 L307,90 L307,77 L311.667264,77 C314.491296,77 316.446931,78.5871254 316.446931,81.1481687 C316.446931,83.270176 315.08117,84.7429047 312.97732,85.1633899 L317,90 L315.357704,90 L311.427534,85.2777866 L308.309062,85.2777866 L308.309062,85.2777866 Z" id="Fill-37"></path>
                <path d="M329,80.6436328 L327.693553,80.6436328 C327.394851,79.124383 326.276476,78.1352419 324.148346,78.1352419 C322.227396,78.1352419 320.958162,79.0513327 320.958162,80.4965449 C320.958162,81.6327739 321.873378,82.3287266 323.551946,82.6219151 L325.473901,82.9871668 C327.730765,83.4086871 329,84.4521224 329,86.2290227 C329,88.4995064 327.115257,90 324.279091,90 C321.238761,90 319.298703,88.4442251 319,85.7532083 L320.305441,85.7532083 C320.622247,87.6939783 322.003118,88.8292201 324.335412,88.8292201 C326.369003,88.8292201 327.656341,87.8588351 327.656341,86.3761106 C327.656341,85.3316881 326.909082,84.5439289 325.268732,84.2507404 L323.067183,83.8292201 C320.734889,83.4086871 319.560193,82.2556762 319.560193,80.5705824 C319.560193,78.4284304 321.369506,77 324.055818,77 C326.630494,77 328.682188,78.1905232 329,80.6436328" id="Fill-38"></path>
            </g>
        </g>
    </g>
</svg>